<mxfile host="65bd71144e">
    <diagram id="0mTT7QU-gVTSPPY6Bcpd" name="Page-1">
        <mxGraphModel dx="1904" dy="1084" grid="1" gridSize="10" guides="1" tooltips="1" connect="1" arrows="1" fold="1" page="1" pageScale="1" pageWidth="1169" pageHeight="827" math="0" shadow="0">
            <root>
                <mxCell id="0"/>
                <mxCell id="1" parent="0"/>
                <mxCell id="36" value="" style="group;verticalAlign=top;labelPosition=center;verticalLabelPosition=bottom;align=center;" parent="1" vertex="1" connectable="0">
                    <mxGeometry x="260" y="321.5" width="560" height="210" as="geometry"/>
                </mxCell>
                <mxCell id="37" value="&lt;font color=&quot;#330066&quot; style=&quot;font-size: 19px;&quot;&gt;PC x86&lt;/font&gt;" style="rounded=0;whiteSpace=wrap;html=1;fillColor=#CCCCFF;" parent="36" vertex="1">
                    <mxGeometry width="560" height="210" as="geometry"/>
                </mxCell>
                <mxCell id="38" value="" style="group" parent="36" vertex="1" connectable="0">
                    <mxGeometry x="80" y="118.65" width="60" height="70" as="geometry"/>
                </mxCell>
                <mxCell id="39" value="&lt;font color=&quot;#000099&quot;&gt;o1&lt;br&gt;&lt;/font&gt;&lt;font style=&quot;font-size: 8px;&quot; color=&quot;#ff66ff&quot;&gt;SFP+&amp;nbsp;10Gib&lt;/font&gt;" style="text;html=1;strokeColor=none;fillColor=none;align=center;verticalAlign=middle;whiteSpace=wrap;rounded=0;container=0;" parent="38" vertex="1">
                    <mxGeometry y="40" width="60" height="30" as="geometry"/>
                </mxCell>
                <mxCell id="40" value="" style="html=1;verticalLabelPosition=bottom;verticalAlign=top;outlineConnect=0;shadow=0;dashed=0;shape=mxgraph.rack.hpe_aruba.switches.rj45_sfp;fontColor=#000099;fillColor=#CCCCFF;container=0;flipV=1;" parent="38" vertex="1">
                    <mxGeometry x="10" width="40" height="40" as="geometry"/>
                </mxCell>
                <mxCell id="41" value="" style="group" parent="36" vertex="1" connectable="0">
                    <mxGeometry x="130" y="118.65" width="60" height="70" as="geometry"/>
                </mxCell>
                <mxCell id="42" value="&lt;font color=&quot;#000099&quot;&gt;o3&lt;br&gt;&lt;/font&gt;&lt;span style=&quot;color: rgb(255, 102, 255); font-size: 8px;&quot;&gt;SFP+&amp;nbsp;&lt;/span&gt;&lt;span style=&quot;color: rgb(255, 102, 255); font-size: 8px;&quot;&gt;10Gib&lt;/span&gt;" style="text;html=1;strokeColor=none;fillColor=none;align=center;verticalAlign=middle;whiteSpace=wrap;rounded=0;container=0;" parent="41" vertex="1">
                    <mxGeometry y="40" width="60" height="30" as="geometry"/>
                </mxCell>
                <mxCell id="43" value="" style="html=1;verticalLabelPosition=bottom;verticalAlign=top;outlineConnect=0;shadow=0;dashed=0;shape=mxgraph.rack.hpe_aruba.switches.rj45_sfp;fontColor=#000099;fillColor=#CCCCFF;container=0;flipV=1;" parent="41" vertex="1">
                    <mxGeometry x="10" width="40" height="40" as="geometry"/>
                </mxCell>
                <mxCell id="44" value="" style="group" parent="36" vertex="1" connectable="0">
                    <mxGeometry x="80" y="20" width="60" height="71.34" as="geometry"/>
                </mxCell>
                <mxCell id="45" value="&lt;font color=&quot;#000099&quot;&gt;o0&lt;br&gt;&lt;/font&gt;&lt;span style=&quot;color: rgb(255, 102, 255); font-size: 8px;&quot;&gt;SFP+&amp;nbsp;&lt;/span&gt;&lt;span style=&quot;color: rgb(255, 102, 255); font-size: 8px;&quot;&gt;10Gib&lt;/span&gt;" style="text;html=1;strokeColor=none;fillColor=none;align=center;verticalAlign=middle;whiteSpace=wrap;rounded=0;" parent="44" vertex="1">
                    <mxGeometry width="60" height="30" as="geometry"/>
                </mxCell>
                <mxCell id="46" value="" style="html=1;verticalLabelPosition=bottom;verticalAlign=top;outlineConnect=0;shadow=0;dashed=0;shape=mxgraph.rack.hpe_aruba.switches.rj45_sfp;fontColor=#000099;fillColor=#CCCCFF;container=0;" parent="44" vertex="1">
                    <mxGeometry x="10" y="31.340000000000003" width="40" height="40" as="geometry"/>
                </mxCell>
                <mxCell id="47" value="" style="group" parent="36" vertex="1" connectable="0">
                    <mxGeometry x="130" y="20" width="60" height="71.34" as="geometry"/>
                </mxCell>
                <mxCell id="48" value="&lt;font color=&quot;#000099&quot;&gt;o2&lt;br&gt;&lt;/font&gt;&lt;span style=&quot;color: rgb(255, 102, 255); font-size: 8px;&quot;&gt;SFP+&amp;nbsp;&lt;/span&gt;&lt;span style=&quot;color: rgb(255, 102, 255); font-size: 8px;&quot;&gt;10Gib&lt;/span&gt;" style="text;html=1;strokeColor=none;fillColor=none;align=center;verticalAlign=middle;whiteSpace=wrap;rounded=0;" parent="47" vertex="1">
                    <mxGeometry width="60" height="30" as="geometry"/>
                </mxCell>
                <mxCell id="49" value="" style="html=1;verticalLabelPosition=bottom;verticalAlign=top;outlineConnect=0;shadow=0;dashed=0;shape=mxgraph.rack.hpe_aruba.switches.rj45_sfp;fontColor=#000099;fillColor=#CCCCFF;container=0;" parent="47" vertex="1">
                    <mxGeometry x="10" y="31.340000000000003" width="40" height="40" as="geometry"/>
                </mxCell>
                <mxCell id="50" value="" style="group" parent="36" vertex="1" connectable="0">
                    <mxGeometry x="290" y="117.31" width="60" height="71.34" as="geometry"/>
                </mxCell>
                <mxCell id="51" value="&lt;font color=&quot;#000099&quot;&gt;p5&lt;br&gt;&lt;/font&gt;&lt;font color=&quot;#3399ff&quot;&gt;2.5Gib&lt;/font&gt;" style="text;html=1;strokeColor=none;fillColor=none;align=center;verticalAlign=middle;whiteSpace=wrap;rounded=0;container=0;" parent="50" vertex="1">
                    <mxGeometry y="41.34" width="60" height="30" as="geometry"/>
                </mxCell>
                <mxCell id="52" value="" style="html=1;verticalLabelPosition=bottom;verticalAlign=top;outlineConnect=0;shadow=0;dashed=0;shape=mxgraph.rack.hpe_aruba.switches.rj45_sfp;fontColor=#000099;fillColor=#CCCCFF;container=0;flipV=1;" parent="50" vertex="1">
                    <mxGeometry x="10" width="40" height="40" as="geometry"/>
                </mxCell>
                <mxCell id="53" value="" style="group" parent="36" vertex="1" connectable="0">
                    <mxGeometry x="290" y="20" width="60" height="70" as="geometry"/>
                </mxCell>
                <mxCell id="54" value="&lt;font color=&quot;#000099&quot;&gt;p7&lt;br&gt;&lt;/font&gt;&lt;font color=&quot;#3399ff&quot;&gt;2.5Gib&lt;/font&gt;" style="text;html=1;strokeColor=none;fillColor=none;align=center;verticalAlign=middle;whiteSpace=wrap;rounded=0;container=0;" parent="53" vertex="1">
                    <mxGeometry width="60" height="30" as="geometry"/>
                </mxCell>
                <mxCell id="55" value="" style="html=1;verticalLabelPosition=bottom;verticalAlign=top;outlineConnect=0;shadow=0;dashed=0;shape=mxgraph.rack.hpe_aruba.switches.rj45_sfp;fontColor=#000099;fillColor=#CCCCFF;container=0;" parent="53" vertex="1">
                    <mxGeometry x="10" y="30" width="40" height="40" as="geometry"/>
                </mxCell>
                <mxCell id="56" value="" style="group" parent="36" vertex="1" connectable="0">
                    <mxGeometry x="340" y="117.31" width="60" height="71.34" as="geometry"/>
                </mxCell>
                <mxCell id="57" value="&lt;font color=&quot;#000099&quot;&gt;p4&lt;br&gt;&lt;/font&gt;&lt;font color=&quot;#3399ff&quot;&gt;2.5Gib&lt;/font&gt;" style="text;html=1;strokeColor=none;fillColor=none;align=center;verticalAlign=middle;whiteSpace=wrap;rounded=0;container=0;" parent="56" vertex="1">
                    <mxGeometry y="41.34" width="60" height="30" as="geometry"/>
                </mxCell>
                <mxCell id="58" value="" style="html=1;verticalLabelPosition=bottom;verticalAlign=top;outlineConnect=0;shadow=0;dashed=0;shape=mxgraph.rack.hpe_aruba.switches.rj45_sfp;fontColor=#000099;fillColor=#CCCCFF;container=0;flipV=1;labelBackgroundColor=default;" parent="56" vertex="1">
                    <mxGeometry x="10" width="40" height="40" as="geometry"/>
                </mxCell>
                <mxCell id="59" value="" style="group" parent="36" vertex="1" connectable="0">
                    <mxGeometry x="340" y="20" width="60" height="70" as="geometry"/>
                </mxCell>
                <mxCell id="60" value="&lt;font color=&quot;#000099&quot;&gt;p6&lt;br&gt;&lt;/font&gt;&lt;font color=&quot;#3399ff&quot;&gt;2.5Gib&lt;/font&gt;" style="text;html=1;strokeColor=none;fillColor=none;align=center;verticalAlign=middle;whiteSpace=wrap;rounded=0;container=0;" parent="59" vertex="1">
                    <mxGeometry width="60" height="30" as="geometry"/>
                </mxCell>
                <mxCell id="61" value="" style="html=1;verticalLabelPosition=bottom;verticalAlign=top;outlineConnect=0;shadow=0;dashed=0;shape=mxgraph.rack.hpe_aruba.switches.rj45_sfp;fontColor=#000099;fillColor=#CCCCFF;container=0;" parent="59" vertex="1">
                    <mxGeometry x="10" y="30" width="40" height="40" as="geometry"/>
                </mxCell>
                <mxCell id="62" value="" style="group" parent="36" vertex="1" connectable="0">
                    <mxGeometry x="450" y="51.34" width="60" height="67.31" as="geometry"/>
                </mxCell>
                <mxCell id="63" value="&lt;font color=&quot;#000099&quot;&gt;p8 &lt;/font&gt;&lt;font color=&quot;#ff3333&quot;&gt;&lt;b&gt;WAN&lt;/b&gt;&lt;/font&gt;&lt;font color=&quot;#000099&quot;&gt;&lt;br&gt;&lt;/font&gt;&lt;font color=&quot;#3399ff&quot;&gt;2.5Gib&lt;/font&gt;&lt;font color=&quot;#ff3333&quot;&gt;&lt;b&gt;&lt;br&gt;&lt;/b&gt;&lt;/font&gt;" style="text;html=1;strokeColor=none;fillColor=none;align=center;verticalAlign=middle;whiteSpace=wrap;rounded=0;container=0;" parent="62" vertex="1">
                    <mxGeometry y="37.31" width="60" height="30" as="geometry"/>
                </mxCell>
                <mxCell id="64" value="" style="html=1;verticalLabelPosition=bottom;verticalAlign=top;outlineConnect=0;shadow=0;dashed=0;shape=mxgraph.rack.hpe_aruba.switches.rj45_sfp;fontColor=#000099;fillColor=#CCCCFF;container=0;flipV=1;" parent="62" vertex="1">
                    <mxGeometry x="10" width="40" height="40" as="geometry"/>
                </mxCell>
                <mxCell id="221" style="html=1;fontSize=17;fontColor=#FF66FF;endArrow=classic;strokeColor=#B3B3B3;endFill=1;strokeWidth=3;edgeStyle=orthogonalEdgeStyle;startArrow=none;startFill=0;" parent="36" source="52" edge="1">
                    <mxGeometry relative="1" as="geometry">
                        <mxPoint x="262" y="135.5" as="sourcePoint"/>
                        <mxPoint x="290" y="293.70000000000005" as="targetPoint"/>
                        <Array as="points">
                            <mxPoint x="290" y="136"/>
                        </Array>
                    </mxGeometry>
                </mxCell>
                <mxCell id="68" value="" style="aspect=fixed;perimeter=ellipsePerimeter;html=1;align=center;shadow=0;dashed=0;spacingTop=3;image;image=img/lib/active_directory/internet_globe.svg;labelBackgroundColor=none;labelBorderColor=none;fontSize=17;fontColor=#333333;fillColor=#CCCCFF;" parent="1" vertex="1">
                    <mxGeometry x="960" y="343" width="100" height="100" as="geometry"/>
                </mxCell>
                <mxCell id="69" value="" style="aspect=fixed;perimeter=ellipsePerimeter;html=1;align=center;shadow=0;dashed=0;spacingTop=3;image;image=img/lib/active_directory/internet_cloud.svg;labelBackgroundColor=none;labelBorderColor=none;fontSize=17;fontColor=#333333;fillColor=#CCCCFF;" parent="1" vertex="1">
                    <mxGeometry x="950" y="296" width="50" height="31.5" as="geometry"/>
                </mxCell>
                <mxCell id="70" style="html=1;fontSize=17;fontColor=#FF66FF;endArrow=none;strokeColor=#990099;endFill=0;strokeWidth=3;edgeStyle=orthogonalEdgeStyle;exitX=0;exitY=0.5;exitDx=0;exitDy=0;" parent="1" source="68" target="64" edge="1">
                    <mxGeometry relative="1" as="geometry">
                        <mxPoint x="1080" y="141.5" as="sourcePoint"/>
                        <mxPoint x="540" y="586.5" as="targetPoint"/>
                        <Array as="points">
                            <mxPoint x="960" y="393"/>
                        </Array>
                    </mxGeometry>
                </mxCell>
                <mxCell id="99" value="" style="group;fillColor=#1ba1e2;fontColor=#ffffff;strokeColor=#006EAF;" parent="1" vertex="1" connectable="0">
                    <mxGeometry x="686" y="220" width="90" height="30" as="geometry"/>
                </mxCell>
                <mxCell id="100" value="" style="shape=image;imageAspect=0;aspect=fixed;verticalLabelPosition=bottom;verticalAlign=top;dashed=1;dashPattern=12 12;labelBackgroundColor=#FFE6CC;labelBorderColor=none;fillStyle=auto;strokeColor=#990099;strokeWidth=1;fontSize=13;fontColor=#333333;fillColor=none;gradientColor=none;html=1;image=https://www.iconshock.com/image/PlasticXP/Networking/subnet;" parent="99" vertex="1">
                    <mxGeometry y="5" width="20" height="20" as="geometry"/>
                </mxCell>
                <mxCell id="101" value="VLAN 101" style="text;html=1;strokeColor=none;fillColor=none;align=center;verticalAlign=middle;whiteSpace=wrap;rounded=0;dashed=1;dashPattern=12 12;labelBackgroundColor=#FFCC99;labelBorderColor=none;fillStyle=auto;strokeWidth=1;fontSize=12;fontColor=#333333;" parent="99" vertex="1">
                    <mxGeometry x="12.857142857142858" width="77.14285714285715" height="30" as="geometry"/>
                </mxCell>
                <mxCell id="139" value="" style="aspect=fixed;perimeter=ellipsePerimeter;html=1;align=center;shadow=0;dashed=0;spacingTop=3;image;image=img/lib/active_directory/internet_cloud.svg;labelBackgroundColor=none;labelBorderColor=none;fontSize=17;fontColor=#333333;fillColor=#CCCCFF;" parent="1" vertex="1">
                    <mxGeometry x="1040" y="327.5" width="50" height="31.5" as="geometry"/>
                </mxCell>
                <mxCell id="157" value="" style="group" parent="1" vertex="1" connectable="0">
                    <mxGeometry x="150" y="90" width="280" height="120" as="geometry"/>
                </mxCell>
                <mxCell id="142" value="Switch 1" style="rounded=0;whiteSpace=wrap;html=1;fillColor=#CCCCFF;labelPosition=center;verticalLabelPosition=top;align=center;verticalAlign=bottom;spacingBottom=-29;fontStyle=1;fontSize=17;fontColor=#4D4D4D;container=0;" parent="157" vertex="1">
                    <mxGeometry width="280" height="120" as="geometry"/>
                </mxCell>
                <mxCell id="143" value="" style="html=1;verticalLabelPosition=bottom;verticalAlign=top;outlineConnect=0;shadow=0;dashed=0;shape=mxgraph.rack.hpe_aruba.switches.rj45_sfp;fontColor=#000099;fillColor=#CCCCFF;container=0;flipV=1;" parent="157" vertex="1">
                    <mxGeometry x="40" y="40" width="40" height="40" as="geometry"/>
                </mxCell>
                <mxCell id="144" value="" style="html=1;verticalLabelPosition=bottom;verticalAlign=top;outlineConnect=0;shadow=0;dashed=0;shape=mxgraph.rack.hpe_aruba.switches.rj45_sfp;fontColor=#000099;fillColor=#CCCCFF;container=0;flipV=1;" parent="157" vertex="1">
                    <mxGeometry x="90" y="40" width="40" height="40" as="geometry"/>
                </mxCell>
                <mxCell id="145" value="" style="html=1;verticalLabelPosition=bottom;verticalAlign=top;outlineConnect=0;shadow=0;dashed=0;shape=mxgraph.rack.hpe_aruba.switches.rj45_sfp;fontColor=#000099;fillColor=#CCCCFF;container=0;flipV=1;" parent="157" vertex="1">
                    <mxGeometry x="140" y="40" width="40" height="40" as="geometry"/>
                </mxCell>
                <mxCell id="146" value="" style="html=1;verticalLabelPosition=bottom;verticalAlign=top;outlineConnect=0;shadow=0;dashed=0;shape=mxgraph.rack.hpe_aruba.switches.rj45_sfp;fontColor=#000099;fillColor=#CCCCFF;container=0;flipV=1;" parent="157" vertex="1">
                    <mxGeometry x="190" y="40" width="40" height="40" as="geometry"/>
                </mxCell>
                <mxCell id="147" value="&lt;font color=&quot;#000099&quot;&gt;1&amp;nbsp;&lt;/font&gt;&lt;font color=&quot;#99ff99&quot;&gt;1Gib&lt;/font&gt;" style="text;html=1;strokeColor=none;fillColor=none;align=center;verticalAlign=middle;whiteSpace=wrap;rounded=0;container=0;" parent="157" vertex="1">
                    <mxGeometry x="30" y="80" width="60" height="30" as="geometry"/>
                </mxCell>
                <mxCell id="148" value="&lt;font color=&quot;#000099&quot;&gt;2&amp;nbsp;&lt;/font&gt;&lt;font color=&quot;#99ff99&quot;&gt;1Gib&lt;/font&gt;" style="text;html=1;strokeColor=none;fillColor=none;align=center;verticalAlign=middle;whiteSpace=wrap;rounded=0;container=0;" parent="157" vertex="1">
                    <mxGeometry x="80" y="80" width="60" height="30" as="geometry"/>
                </mxCell>
                <mxCell id="149" value="&lt;font color=&quot;#000099&quot;&gt;3&amp;nbsp;&lt;/font&gt;&lt;font color=&quot;#99ff99&quot;&gt;1Gib&lt;/font&gt;" style="text;html=1;strokeColor=none;fillColor=none;align=center;verticalAlign=middle;whiteSpace=wrap;rounded=0;container=0;" parent="157" vertex="1">
                    <mxGeometry x="130" y="80" width="60" height="30" as="geometry"/>
                </mxCell>
                <mxCell id="150" value="&lt;font color=&quot;#000099&quot;&gt;4&amp;nbsp;&lt;/font&gt;&lt;font color=&quot;#99ff99&quot;&gt;1Gib&lt;/font&gt;" style="text;html=1;strokeColor=none;fillColor=none;align=center;verticalAlign=middle;whiteSpace=wrap;rounded=0;container=0;" parent="157" vertex="1">
                    <mxGeometry x="180" y="80" width="60" height="30" as="geometry"/>
                </mxCell>
                <mxCell id="168" value="" style="group" parent="1" vertex="1" connectable="0">
                    <mxGeometry x="598" y="90" width="280" height="120" as="geometry"/>
                </mxCell>
                <mxCell id="169" value="Switch 2" style="rounded=0;whiteSpace=wrap;html=1;fillColor=#CCCCFF;labelPosition=center;verticalLabelPosition=top;align=center;verticalAlign=bottom;spacingBottom=-29;fontStyle=1;fontSize=17;fontColor=#4D4D4D;container=0;" parent="168" vertex="1">
                    <mxGeometry width="280" height="120" as="geometry"/>
                </mxCell>
                <mxCell id="170" value="" style="html=1;verticalLabelPosition=bottom;verticalAlign=top;outlineConnect=0;shadow=0;dashed=0;shape=mxgraph.rack.hpe_aruba.switches.rj45_sfp;fontColor=#000099;fillColor=#CCCCFF;container=0;flipV=1;" parent="168" vertex="1">
                    <mxGeometry x="40" y="40" width="40" height="40" as="geometry"/>
                </mxCell>
                <mxCell id="171" value="" style="html=1;verticalLabelPosition=bottom;verticalAlign=top;outlineConnect=0;shadow=0;dashed=0;shape=mxgraph.rack.hpe_aruba.switches.rj45_sfp;fontColor=#000099;fillColor=#CCCCFF;container=0;flipV=1;" parent="168" vertex="1">
                    <mxGeometry x="90" y="40" width="40" height="40" as="geometry"/>
                </mxCell>
                <mxCell id="172" value="" style="html=1;verticalLabelPosition=bottom;verticalAlign=top;outlineConnect=0;shadow=0;dashed=0;shape=mxgraph.rack.hpe_aruba.switches.rj45_sfp;fontColor=#000099;fillColor=#CCCCFF;container=0;flipV=1;" parent="168" vertex="1">
                    <mxGeometry x="140" y="40" width="40" height="40" as="geometry"/>
                </mxCell>
                <mxCell id="173" value="" style="html=1;verticalLabelPosition=bottom;verticalAlign=top;outlineConnect=0;shadow=0;dashed=0;shape=mxgraph.rack.hpe_aruba.switches.rj45_sfp;fontColor=#000099;fillColor=#CCCCFF;container=0;flipV=1;" parent="168" vertex="1">
                    <mxGeometry x="190" y="40" width="40" height="40" as="geometry"/>
                </mxCell>
                <mxCell id="174" value="&lt;font color=&quot;#000099&quot;&gt;1&amp;nbsp;&lt;/font&gt;&lt;font color=&quot;#99ff99&quot;&gt;1Gib&lt;/font&gt;" style="text;html=1;strokeColor=none;fillColor=none;align=center;verticalAlign=middle;whiteSpace=wrap;rounded=0;container=0;" parent="168" vertex="1">
                    <mxGeometry x="30" y="80" width="60" height="30" as="geometry"/>
                </mxCell>
                <mxCell id="175" value="&lt;font color=&quot;#000099&quot;&gt;2&amp;nbsp;&lt;/font&gt;&lt;font color=&quot;#99ff99&quot;&gt;1Gib&lt;/font&gt;" style="text;html=1;strokeColor=none;fillColor=none;align=center;verticalAlign=middle;whiteSpace=wrap;rounded=0;container=0;" parent="168" vertex="1">
                    <mxGeometry x="80" y="80" width="60" height="30" as="geometry"/>
                </mxCell>
                <mxCell id="176" value="&lt;font color=&quot;#000099&quot;&gt;3&amp;nbsp;&lt;/font&gt;&lt;font color=&quot;#99ff99&quot;&gt;1Gib&lt;/font&gt;" style="text;html=1;strokeColor=none;fillColor=none;align=center;verticalAlign=middle;whiteSpace=wrap;rounded=0;container=0;" parent="168" vertex="1">
                    <mxGeometry x="130" y="80" width="60" height="30" as="geometry"/>
                </mxCell>
                <mxCell id="177" value="&lt;font color=&quot;#000099&quot;&gt;4&amp;nbsp;&lt;/font&gt;&lt;font color=&quot;#99ff99&quot;&gt;1Gib&lt;/font&gt;" style="text;html=1;strokeColor=none;fillColor=none;align=center;verticalAlign=middle;whiteSpace=wrap;rounded=0;container=0;" parent="168" vertex="1">
                    <mxGeometry x="180" y="80" width="60" height="30" as="geometry"/>
                </mxCell>
                <mxCell id="179" style="html=1;fontSize=17;fontColor=#FF66FF;endArrow=none;strokeColor=#B3B3B3;endFill=0;strokeWidth=3;edgeStyle=orthogonalEdgeStyle;" parent="1" source="143" target="55" edge="1">
                    <mxGeometry relative="1" as="geometry">
                        <mxPoint x="479.99999999999983" y="929.98" as="sourcePoint"/>
                        <mxPoint x="460.3588235294122" y="609.0200000000002" as="targetPoint"/>
                        <Array as="points">
                            <mxPoint x="210" y="280"/>
                            <mxPoint x="580" y="280"/>
                        </Array>
                    </mxGeometry>
                </mxCell>
                <mxCell id="180" style="html=1;fontSize=17;fontColor=#FF66FF;endArrow=none;strokeColor=#B3B3B3;endFill=0;strokeWidth=3;edgeStyle=orthogonalEdgeStyle;" parent="1" source="170" target="61" edge="1">
                    <mxGeometry relative="1" as="geometry">
                        <mxPoint x="140.05882352941217" y="860" as="sourcePoint"/>
                        <mxPoint x="570" y="401" as="targetPoint"/>
                        <Array as="points">
                            <mxPoint x="658" y="270"/>
                            <mxPoint x="630" y="270"/>
                        </Array>
                    </mxGeometry>
                </mxCell>
                <mxCell id="181" value="" style="group" parent="1" vertex="1" connectable="0">
                    <mxGeometry x="686" y="250" width="90" height="30" as="geometry"/>
                </mxCell>
                <mxCell id="182" value="" style="shape=image;imageAspect=0;aspect=fixed;verticalLabelPosition=bottom;verticalAlign=top;dashed=1;dashPattern=12 12;labelBackgroundColor=#FFE6CC;labelBorderColor=none;fillStyle=auto;strokeColor=#990099;strokeWidth=1;fontSize=13;fontColor=#333333;fillColor=none;gradientColor=none;html=1;image=https://www.iconshock.com/image/PlasticXP/Networking/subnet;" parent="181" vertex="1">
                    <mxGeometry y="5" width="20" height="20" as="geometry"/>
                </mxCell>
                <mxCell id="183" value="VLAN 103" style="text;html=1;strokeColor=none;fillColor=none;align=center;verticalAlign=middle;whiteSpace=wrap;rounded=0;dashed=1;dashPattern=12 12;labelBackgroundColor=#FFCC99;labelBorderColor=none;fillStyle=auto;strokeWidth=1;fontSize=12;fontColor=#333333;" parent="181" vertex="1">
                    <mxGeometry x="12.857142857142858" width="77.14285714285715" height="30" as="geometry"/>
                </mxCell>
                <mxCell id="184" value="" style="group" parent="1" vertex="1" connectable="0">
                    <mxGeometry x="686" y="280" width="90" height="30" as="geometry"/>
                </mxCell>
                <mxCell id="185" value="" style="shape=image;imageAspect=0;aspect=fixed;verticalLabelPosition=bottom;verticalAlign=top;dashed=1;dashPattern=12 12;labelBackgroundColor=#FFE6CC;labelBorderColor=none;fillStyle=auto;strokeColor=#990099;strokeWidth=1;fontSize=13;fontColor=#333333;fillColor=none;gradientColor=none;html=1;image=https://www.iconshock.com/image/PlasticXP/Networking/subnet;" parent="184" vertex="1">
                    <mxGeometry y="5" width="20" height="20" as="geometry"/>
                </mxCell>
                <mxCell id="186" value="VLAN 104" style="text;html=1;strokeColor=none;fillColor=none;align=center;verticalAlign=middle;whiteSpace=wrap;rounded=0;dashed=1;dashPattern=12 12;labelBackgroundColor=#FFCC99;labelBorderColor=none;fillStyle=auto;strokeWidth=1;fontSize=12;fontColor=#333333;" parent="184" vertex="1">
                    <mxGeometry x="12.857142857142858" width="77.14285714285715" height="30" as="geometry"/>
                </mxCell>
                <mxCell id="197" value="" style="group;fillColor=#60a917;fontColor=#ffffff;strokeColor=#2D7600;" parent="1" vertex="1" connectable="0">
                    <mxGeometry x="110" y="220" width="90" height="30" as="geometry"/>
                </mxCell>
                <mxCell id="198" value="" style="shape=image;imageAspect=0;aspect=fixed;verticalLabelPosition=bottom;verticalAlign=top;dashed=1;dashPattern=12 12;labelBackgroundColor=#FFE6CC;labelBorderColor=none;fillStyle=auto;strokeColor=#990099;strokeWidth=1;fontSize=13;fontColor=#333333;fillColor=none;gradientColor=none;html=1;image=https://www.iconshock.com/image/PlasticXP/Networking/subnet;" parent="197" vertex="1">
                    <mxGeometry y="5" width="20" height="20" as="geometry"/>
                </mxCell>
                <mxCell id="199" value="VLAN 102" style="text;html=1;strokeColor=none;fillColor=none;align=center;verticalAlign=middle;whiteSpace=wrap;rounded=0;dashed=1;dashPattern=12 12;labelBackgroundColor=#FFCC99;labelBorderColor=none;fillStyle=auto;strokeWidth=1;fontSize=12;fontColor=#333333;" parent="197" vertex="1">
                    <mxGeometry x="12.857142857142858" width="77.14285714285715" height="30" as="geometry"/>
                </mxCell>
                <mxCell id="200" value="" style="group" parent="1" vertex="1" connectable="0">
                    <mxGeometry x="110" y="250" width="90" height="30" as="geometry"/>
                </mxCell>
                <mxCell id="201" value="" style="shape=image;imageAspect=0;aspect=fixed;verticalLabelPosition=bottom;verticalAlign=top;dashed=1;dashPattern=12 12;labelBackgroundColor=#FFE6CC;labelBorderColor=none;fillStyle=auto;strokeColor=#990099;strokeWidth=1;fontSize=13;fontColor=#333333;fillColor=none;gradientColor=none;html=1;image=https://www.iconshock.com/image/PlasticXP/Networking/subnet;" parent="200" vertex="1">
                    <mxGeometry y="5" width="20" height="20" as="geometry"/>
                </mxCell>
                <mxCell id="202" value="VLAN 103" style="text;html=1;strokeColor=none;fillColor=none;align=center;verticalAlign=middle;whiteSpace=wrap;rounded=0;dashed=1;dashPattern=12 12;labelBackgroundColor=#FFCC99;labelBorderColor=none;fillStyle=auto;strokeWidth=1;fontSize=12;fontColor=#333333;" parent="200" vertex="1">
                    <mxGeometry x="12.857142857142858" width="77.14285714285715" height="30" as="geometry"/>
                </mxCell>
                <mxCell id="203" value="" style="group" parent="1" vertex="1" connectable="0">
                    <mxGeometry x="110" y="280" width="90" height="30" as="geometry"/>
                </mxCell>
                <mxCell id="204" value="" style="shape=image;imageAspect=0;aspect=fixed;verticalLabelPosition=bottom;verticalAlign=top;dashed=1;dashPattern=12 12;labelBackgroundColor=#FFE6CC;labelBorderColor=none;fillStyle=auto;strokeColor=#990099;strokeWidth=1;fontSize=13;fontColor=#333333;fillColor=none;gradientColor=none;html=1;image=https://www.iconshock.com/image/PlasticXP/Networking/subnet;" parent="203" vertex="1">
                    <mxGeometry y="5" width="20" height="20" as="geometry"/>
                </mxCell>
                <mxCell id="205" value="VLAN 104" style="text;html=1;strokeColor=none;fillColor=none;align=center;verticalAlign=middle;whiteSpace=wrap;rounded=0;dashed=1;dashPattern=12 12;labelBackgroundColor=#FFCC99;labelBorderColor=none;fillStyle=auto;strokeWidth=1;fontSize=12;fontColor=#333333;" parent="203" vertex="1">
                    <mxGeometry x="12.857142857142858" width="77.14285714285715" height="30" as="geometry"/>
                </mxCell>
                <mxCell id="220" style="html=1;fontSize=17;fontColor=#FF66FF;endArrow=classic;strokeColor=#B3B3B3;endFill=1;strokeWidth=3;edgeStyle=orthogonalEdgeStyle;" parent="1" source="58" edge="1">
                    <mxGeometry relative="1" as="geometry">
                        <mxPoint x="678" y="547" as="sourcePoint"/>
                        <mxPoint x="670" y="617" as="targetPoint"/>
                        <Array as="points">
                            <mxPoint x="670" y="459"/>
                            <mxPoint x="670" y="617"/>
                        </Array>
                    </mxGeometry>
                </mxCell>
                <mxCell id="222" value="" style="group" parent="1" vertex="1" connectable="0">
                    <mxGeometry x="630" y="617" width="90" height="30" as="geometry"/>
                </mxCell>
                <mxCell id="223" value="" style="shape=image;imageAspect=0;aspect=fixed;verticalLabelPosition=bottom;verticalAlign=top;dashed=1;dashPattern=12 12;labelBackgroundColor=#FFE6CC;labelBorderColor=none;fillStyle=auto;strokeColor=#990099;strokeWidth=1;fontSize=13;fontColor=#333333;fillColor=none;gradientColor=none;html=1;image=https://www.iconshock.com/image/PlasticXP/Networking/subnet;" parent="222" vertex="1">
                    <mxGeometry y="5" width="20" height="20" as="geometry"/>
                </mxCell>
                <mxCell id="224" value="&lt;span style=&quot;background-color: rgb(51, 255, 51);&quot;&gt;&amp;nbsp; &amp;nbsp; LAN&amp;nbsp; &amp;nbsp;&amp;nbsp;&lt;/span&gt;" style="text;html=1;strokeColor=none;fillColor=none;align=center;verticalAlign=middle;whiteSpace=wrap;rounded=0;dashed=1;dashPattern=12 12;labelBackgroundColor=#FFCC99;labelBorderColor=none;fillStyle=auto;strokeWidth=1;fontSize=12;fontColor=#333333;" parent="222" vertex="1">
                    <mxGeometry x="12.857142857142858" width="77.14285714285715" height="30" as="geometry"/>
                </mxCell>
                <mxCell id="225" value="" style="group" parent="1" vertex="1" connectable="0">
                    <mxGeometry x="510" y="617" width="90" height="30" as="geometry"/>
                </mxCell>
                <mxCell id="226" value="" style="shape=image;imageAspect=0;aspect=fixed;verticalLabelPosition=bottom;verticalAlign=top;dashed=1;dashPattern=12 12;labelBackgroundColor=#FFE6CC;labelBorderColor=none;fillStyle=auto;strokeColor=#990099;strokeWidth=1;fontSize=13;fontColor=#333333;fillColor=none;gradientColor=none;html=1;image=https://www.iconshock.com/image/PlasticXP/Networking/subnet;" parent="225" vertex="1">
                    <mxGeometry y="5" width="20" height="20" as="geometry"/>
                </mxCell>
                <mxCell id="227" value="&lt;span style=&quot;background-color: rgb(51, 255, 51);&quot;&gt;&amp;nbsp; &amp;nbsp; LAN&amp;nbsp; &amp;nbsp;&amp;nbsp;&lt;/span&gt;" style="text;html=1;strokeColor=none;fillColor=none;align=center;verticalAlign=middle;whiteSpace=wrap;rounded=0;dashed=1;dashPattern=12 12;labelBackgroundColor=#FFCC99;labelBorderColor=none;fillStyle=auto;strokeWidth=1;fontSize=12;fontColor=#333333;" parent="225" vertex="1">
                    <mxGeometry x="12.857142857142858" width="77.14285714285715" height="30" as="geometry"/>
                </mxCell>
                <mxCell id="385" value="Trargeted network layout" style="text;html=1;strokeColor=none;fillColor=none;align=center;verticalAlign=middle;whiteSpace=wrap;rounded=0;shadow=0;labelBackgroundColor=none;sketch=0;strokeWidth=5;fontFamily=Courier New;fontSize=24;fontColor=default;" parent="1" vertex="1">
                    <mxGeometry x="330" y="30" width="400" height="30" as="geometry"/>
                </mxCell>
            </root>
        </mxGraphModel>
    </diagram>
</mxfile>